<svg id="Capa_1" enable-background="new 0 0 512.485 512.485" height="512" viewBox="0 0 512.485 512.485" width="512" xmlns="http://www.w3.org/2000/svg"><g><path d="m512.485 205.488c0 27.063-21.832 49.76-49.76 49.76h-72.17v-15c-29.316-3.008-9.332-.96-99.83-10.23l-10.48-73.25c-3 0-5.96.38-8.82 1.14-2.686-10.142-4.994-18.858-7.68-29 8.994-2.383 14.929-2.14 23.11-2.14 7.051-39.214 41.436-69.52 83.18-69.52 46.72 0 84.52 37.794 84.52 84.52v13.96h8.17c27.44 0 49.76 22.32 49.76 49.76z" fill="#e6f8fc"/><path d="m305.485 204.078v8.47h-15l-42.82 100.53c-15.795 5.225-9.03 2.995-109 36.08h-58.62c-71.51 0-106.57-86.64-56.6-136.64 15.12-15.11 35.22-23.44 56.6-23.44h12.84c8.709-61.728 68.741-101.555 124.64-90.17 49.99 8.9 87.96 52.52 87.96 105.17z" fill="#cef2fb"/><path d="m305.485 204.078v8.47h-4.11l-42.82 100.53-50.11 16.59c0-196.642-.329-227.474.31-232 52.311 4.484 96.73 49.324 96.73 106.41z" fill="#a7eaf9"/><path d="m510.005 392.248c0 34.792-28.152 63-63 63h-252c-45.77 0-83-37.23-83-83 0-45.839 37.102-83 83-83h14.01c6.99-51.55 49.5-91.96 101.99-95.72 2.64-.18 45.289 68.997 47.979 68.997 29.66 0 4.572-3.098 25.532 17.872 20.96 20.95 45.489-5.809 45.489 23.851v25h17c34.74 0 63 28.26 63 63z" fill="#e6f8fc"/><g fill="#cef2fb"><path d="m510.005 392.248c0 34.792-28.152 63-63 63h-136v-261.72c66.234-4.517 119 47.916 119 110.72v25h17c34.74 0 63 28.26 63 63z"/><path d="m512.485 205.488c0 27.063-21.832 49.76-49.76 49.76h-72.17v-15l-23.1-2.37v-180.59c22.227-.776 45.057 7.428 62.35 24.71 26.578 26.594 24.75 55.265 24.75 73.73h8.17c27.44 0 49.76 22.32 49.76 49.76z"/></g></g></svg>