<svg id="Capa_1" enable-background="new 0 0 512 512" height="512" viewBox="0 0 512 512" width="512" xmlns="http://www.w3.org/2000/svg"><g><path d="m512 207.5v-30h-82.02c-.714-5.259-1.804-10.53-3.33-15.81 40.754-15.648 23.327-8.958 76.055-29.196l-10.75-28.008c-85.667 32.88-67.331 25.842-77.516 29.752-2.548-4.102-5.067-7.622-7.799-11.048l59.97-59.97-21.22-21.21-60.49 60.5c-3.23-2.34-6.59-4.51-10.07-6.5 21.17-47.553-14.144 31.753 33.253-74.688l-27.406-12.203c-6.527 14.659-26.67 59.895-33.708 75.701-5.04-1.234-8.112-1.761-11.968-2.3v-82.02h-30v82.01c-4.048.55-8.045 1.319-11.973 2.298l-33.654-75.59-27.406 12.202c46.952 105.461 13.042 29.308 33.182 74.54-3.365 1.915-6.762 4.105-10.087 6.508l-60.456-60.456-21.213 21.213 60.07 60.07c-.99 1.335-1.931 2.683-2.794 4.046l11.02 6.98 18.01 100.71c138.072 4.304 126.968 3.533 126.1 4.69.188 0-4.522 6.055-8.59 10.11-3.11 2.959-1.764 1.676-5.99 5.71 10.326 10.852 5.684 5.974 20.68 21.73 6.801-6.468 14.3-13.236 22.368-26.107l74.841 33.32 12.202-27.406-74.77-33.289c1.56-5.309 2.709-10.748 3.449-16.288h82.01z" fill="#fc0"/><path d="m429.98 207.5c-1.595 11.762-3.689 16.166-3.44 16.29l74.771 33.287-12.202 27.406c-55.276-24.607-72.607-32.212-74.879-33.343-8.508 13.546-15.445 19.582-22.33 26.13l-12.44-13.07c-3.181-7.295-5.777-14.924-5.69-15.04l-53.77-12.25v-236.41h15v82.02c4.3.601 7.57 1.222 11.97 2.3l33.707-75.701 27.406 12.203-33.253 74.688c3.48 1.99 6.84 4.16 10.07 6.5l60.49-60.5 21.22 21.21-59.97 59.97c2.763 3.466 5.302 7.028 7.8 11.05l77.515-29.754 10.75 28.008-76.055 29.196c-.149 0 1.941 5.58 3.33 15.81h82.02v30z" fill="#ff9e22"/><path d="m399 284.5c0 45.77-37.23 83-83 83h-252c-34.793 0-63-28.153-63-63 0-34.74 28.26-63 63-63h17v-25c0-61.335 49.647-111 111-111 56.12 0 39.788 58.115 47.128 112.255l72.872 38.745c45.839 0 87-17.898 87 28z" fill="#e6f8fc"/><path d="m399 284.5c0 45.77-37.23 83-83 83h-132v-261.72c59.236-4.247 110.261 38.713 117.99 95.72h14.01c45.839 0 83 37.102 83 83z" fill="#cef2fb"/><g fill="#00465f"><path d="m432 353.5h80v30h-80z"/><path d="m184 274.5h80v30h-80z"/><path d="m312 417.5h200v30h-200z"/></g><path d="m88.234 401.5h191.766v30h-191.766z" fill="#00607f"/><path d="m0 465.5h152v30h-152z" fill="#00607f"/><path d="m248 481.5h152v30h-152z" fill="#00465f"/><path d="m184 401.5h96v30h-96z" fill="#00465f"/></g></svg>