<svg id="Capa_1" enable-background="new 0 0 510.005 510.005" height="512" viewBox="0 0 510.005 510.005" width="512" xmlns="http://www.w3.org/2000/svg"><g><path d="m236.005 351.502h30v64h-30z" fill="#00bff0"/><path d="m296.005 351.502h30v64h-30z" fill="#00bff0"/><path d="m356.005 351.502h30v64h-30z" fill="#00a9de"/><path d="m236.005 445.502h30v56h-30z" fill="#00bff0"/><path d="m296.005 445.502h30v56h-30z" fill="#00bff0"/><g fill="#00a9de"><path d="m356.005 445.502h30v56h-30z"/><path d="m311.005 351.502h15v64h-15z"/><path d="m311.005 445.502h15v56h-15z"/></g><path d="m305.485 115.332v8.47h-15l-35.48 111.7c-.124.027-116.18 24.876-116.34 24.91h-58.62c-71.51 0-106.57-86.64-56.6-136.64 15.12-15.11 35.22-23.44 56.6-23.44h12.84c7.32-51.92 52.06-91.83 105.77-91.83 58.89 0 106.83 47.638 106.83 106.83z" fill="#00465f"/><path d="m305.485 115.332v8.47h-3.26l-35.48 111.7-57.68 12.35c0-200.029-.391-233.733.37-238.81 53.93 5.39 96.05 50.84 96.05 106.29z" fill="#002c3c"/><path d="m510.005 303.502c0 34.792-28.152 63-63 63h-252c-45.77 0-83-37.23-83-83 0-45.839 37.102-83 83-83h14.01c6.99-51.55 49.5-91.96 101.99-95.72 66.241-4.515 119 47.919 119 110.72v25h17c34.74 0 63 28.26 63 63z" fill="#00607f"/><path d="m510.005 303.502c0 34.792-28.152 63-63 63h-136v-261.72c66.241-4.515 119 47.919 119 110.72v25h17c34.74 0 63 28.26 63 63z" fill="#00465f"/></g></svg>