<svg id="Capa_1" enable-background="new 0 0 512 512" height="512" viewBox="0 0 512 512" width="512" xmlns="http://www.w3.org/2000/svg"><g><path d="m305.3 136.43h-98.6l-69.7 69.88v98.8l69.7 69.89h98.6l69.7-69.89v-98.8z" fill="#cef2fb"/><path d="m375 206.31v98.8l-69.7 69.89h-49.3c0-10.183 0-228.289 0-238.57h49.3z" fill="#a7eaf9"/><path d="m512 241h-34l30-40-24-18-43.5 58h-148.29l104.86-104.85 71.77 10.25 4.24-29.7-49.5-7.07 24.05-24.04-21.22-21.22-24.04 24.05-7.07-49.5-29.7 4.24 10.25 71.77-104.85 104.86v-148.29l58-43.5-18-24-40 30v-34h-30v34l-40-30-18 24 58 43.5v148.29l-104.85-104.86 10.25-71.77-29.7-4.24-7.07 49.5-24.04-24.05-21.22 21.22 24.05 24.04-49.5 7.07 4.24 29.7 71.77-10.25 104.86 104.85h-148.29l-43.5-58-24 18 30 40h-34v30h34l-30 40 24 18 43.5-58h148.29l-104.86 104.85-71.77-10.25-4.24 29.7 49.5 7.07-24.05 24.04 21.22 21.22 24.04-24.05 7.07 49.5 29.7-4.24-10.25-71.77 104.85-104.86v148.29l-58 43.5 18 24 40-30v34h30v-34l40 30 18-24-58-43.5v-148.29l104.85 104.86-10.25 71.77 29.7 4.24 7.07-49.5 24.04 24.05 21.22-21.22-24.05-24.04 49.5-7.07-4.24-29.7-71.77 10.25-104.86-104.85h148.29l43.5 58 24-18-30-40h34zm-224 28.26-18.74 18.74h-26.52l-18.74-18.74v-26.52l18.74-18.74h26.52l18.74 18.74z" fill="#e6f8fc"/><path d="m512 271h-34l30 40-24 18-43.5-58h-148.29l104.86 104.85 71.77-10.25 4.24 29.7-49.5 7.07 24.05 24.04-21.22 21.22-24.04-24.05-7.07 49.5-29.7-4.24 10.25-71.77-104.85-104.86v148.29l58 43.5-18 24-40-30v34h-15v-224h13.26l18.74-18.74v-26.52l-18.74-18.74h-13.26v-224h15v34l40-30 18 24-58 43.5v148.29l104.85-104.86-10.25-71.77 29.7-4.24 7.07 49.5 24.04-24.05 21.22 21.22-24.05 24.04 49.5 7.07-4.24 29.7-71.77-10.25-104.86 104.85h148.29l43.5-58 24 18-30 40h34z" fill="#cef2fb"/><path d="m303 236.53v38.94l-27.53 27.53h-38.94l-27.53-27.53v-38.94l27.53-27.53h38.94z" fill="#00bff0"/><path d="m303 236.53v38.94l-27.53 27.53h-19.47v-94h19.47z" fill="#00a9de"/></g></svg>